<svg id="Layer_1" data-name="Layer 1" xmlns="http://www.w3.org/2000/svg" viewBox="0 0 1024 1024">
  <defs>
    <style>
      .cls-1, .cls-2 {
        fill: #db0d15;
      }

      .cls-2 {
        fill-rule: evenodd;
      }
    </style>
  </defs>
  <title>logo-department</title>
  <g>
    <g>
      <g>
        <path class="cls-1" d="M863.69565,862.83634h-18.0651c-3.459,0-5.00564-4.68256-2.29214-7.01562l5.18046-4.49287a23.87576,23.87576,0,0,1,15.61458-5.90734h18.06361c3.47406,0,5.02058,4.66762,2.30571,7.03056l-5.17909,4.47793a23.87631,23.87631,0,0,1-15.628,5.90734"/>
        <path class="cls-1" d="M887.33419,837.45642,869.284,838.71108c-3.41417.21807-5.29688-4.33156-2.77327-6.84087l4.88908-4.84238a23.64127,23.64127,0,0,1,15.14689-6.95887l18.02028-1.2681c3.45912-.24794,5.32689,4.33155,2.78672,6.82593l-4.8592,4.84238a23.85439,23.85439,0,0,1-15.16034,6.98725"/>
        <path class="cls-1" d="M909.14829,810.48577,891.22962,813.01c-3.41429.48095-5.58838-3.95367-3.23947-6.63624l4.49461-5.15007a23.75087,23.75087,0,0,1,14.63587-8.0074l17.91867-2.5377c3.42923-.48244,5.58838,3.93724,3.25441,6.60786l-4.50955,5.1919a23.86285,23.86285,0,0,1-14.63587,8.0074"/>
        <path class="cls-1" d="M929.00794,782.10213l-17.69889,3.70423c-3.386.74383-5.85148-3.516-3.69234-6.35992l4.13-5.46971a23.91051,23.91051,0,0,1,14.03669-9.029l17.68557-3.7341c3.3859-.72889,5.85136,3.52947,3.70716,6.37486l-4.15978,5.46971a24.14855,24.14855,0,0,1-14.00843,9.044"/>
        <path class="cls-1" d="M946.81169,752.34584l-17.351,4.97382c-3.34107.947-6.0994-3.1217-4.17335-6.12691l3.76543-5.73258a23.89554,23.89554,0,0,1,13.36591-9.976l17.37913-4.96038c3.34108-.97684,6.11435,3.09333,4.17336,6.097l-3.76543,5.74752a23.8954,23.8954,0,0,1-13.394,9.97751"/>
        <path class="cls-1" d="M962.52626,721.423l-16.9564,6.16873c-3.26785,1.21135-6.30261-2.66913-4.56633-5.79084l3.32613-5.979a23.77557,23.77557,0,0,1,12.66649-10.88265L973.966,698.769c3.26936-1.19491,6.30411,2.68407,4.5829,5.79084l-3.35614,5.99547A23.65333,23.65333,0,0,1,962.52626,721.423"/>
        <path class="cls-1" d="M976.05355,689.47855l-16.51872,7.38007c-3.15131,1.401-6.44905-2.24643-4.9608-5.48464l2.93315-6.18367a23.745,23.745,0,0,1,11.8626-11.75644l16.50364-7.35169c3.16625-1.401,6.47894,2.25988,4.96081,5.46971l-2.93153,6.21354a23.80261,23.80261,0,0,1-11.84915,11.71312"/>
        <path class="cls-1" d="M987.31833,656.71706,971.34065,665.192c-3.0497,1.634-6.61042-1.79386-5.31194-5.09032l2.46546-6.40324A24.06682,24.06682,0,0,1,979.511,641.13989l15.96423-8.47491c3.03476-1.634,6.61043,1.77892,5.312,5.10526l-2.452,6.3883a23.84907,23.84907,0,0,1-11.01688,12.55852"/>
        <path class="cls-1" d="M996.26273,623.22667l-15.33517,9.58319c-2.93315,1.82374-6.69858-1.34129-5.67654-4.73932l2.02778-6.54961A23.86813,23.86813,0,0,1,987.40649,608.232l15.30678-9.55332c2.9466-1.85211,6.727,1.298,5.66159,4.71094l-2.01421,6.53468a23.751,23.751,0,0,1-10.09792,13.30235"/>
        <path class="cls-1" d="M1002.82994,589.1687l-14.621,10.61828c-2.80154,2.04181-6.78525-.832-5.98285-4.28824l1.56145-6.68105A23.81409,23.81409,0,0,1,992.95,574.85963l14.62243-10.61978c2.80166-2.05674,6.7703.8469,5.98285,4.31812l-1.5764,6.67955a23.73871,23.73871,0,0,1-9.149,13.93118"/>
        <path class="cls-1" d="M1007.03156,554.7881,993.213,566.38472c-2.68512,2.2315-6.87192-.37938-6.28917-3.89541l1.08032-6.75275a23.80613,23.80613,0,0,1,8.15694-14.572l13.84692-11.61155c2.67167-2.21656,6.845.37938,6.26078,3.88048l-1.06538,6.78261a23.97981,23.97981,0,0,1-8.17188,14.572"/>
        <path class="cls-1" d="M1008.81267,520.14612l-13.0012,12.55852c-2.51029,2.40625-6.845.1165-6.53721-3.44284l.61263-6.82593a23.77862,23.77862,0,0,1,7.1349-15.11115l12.98625-12.54508c2.49535-2.40626,6.87341-.10157,6.52389,3.45777l-.61263,6.82593a23.6061,23.6061,0,0,1-7.10663,15.08278"/>
        <path class="cls-1" d="M1008.17015,485.47426,996.073,498.89312c-2.334,2.5825-6.81364.599-6.74042-2.96039l.11655-6.87075a24.04969,24.04969,0,0,1,6.05457-15.56372l12.08225-13.41886c2.32053-2.56757,6.84353-.584,6.75686,3.0052l-.13149,6.84087a23.90889,23.90889,0,0,1-6.04113,15.54879"/>
        <path class="cls-1" d="M1005.10551,450.96222,993.987,465.16972c-2.13076,2.7707-6.7703,1.09335-6.96007-2.47944l-.35114-6.87074a23.94866,23.94866,0,0,1,4.97575-15.92817l11.13355-14.221c2.14557-2.74232,6.74178-1.0799,6.94649,2.47944l.3362,6.86925a23.91985,23.91985,0,0,1-4.9623,15.94311"/>
        <path class="cls-1" d="M999.66357,416.71456,989.5507,431.67933c-1.941,2.8887-6.68352,1.53248-7.12145-1.99848l-.81584-6.811a23.76714,23.76714,0,0,1,3.82221-16.24931l10.12632-14.95133c1.941-2.8887,6.66869-1.54592,7.093,1.99849l.83079,6.811a23.93149,23.93149,0,0,1-3.82221,16.23586"/>
        <path class="cls-1" d="M991.798,382.96129l-9.01761,15.622c-1.73615,3.0052-6.56709,1.98355-7.238-1.51754l-1.29848-6.73781a23.875,23.875,0,0,1,2.7135-16.46887l9.01774-15.622c1.7227-3.01864,6.567-1.99849,7.22292,1.51754l1.3,6.72437a23.99855,23.99855,0,0,1-2.70005,16.48231"/>
        <path class="cls-1" d="M981.64192,349.792l-7.924,16.26425c-1.50318,3.07689-6.42053,2.42119-7.29477-1.02165l-1.76617-6.6228a23.80366,23.80366,0,0,1,1.50319-16.6272l7.93729-16.23586c1.50318-3.10677,6.42065-2.42119,7.31121.99327l1.76467,6.63624a24.00509,24.00509,0,0,1-1.53145,16.61375"/>
        <path class="cls-1" d="M969.18014,317.45474l-6.77043,16.75863c-1.31329,3.1949-6.216,2.87377-7.35455-.52426l-2.23236-6.47643a23.71553,23.71553,0,0,1,.34965-16.68694l6.7718-16.74519c1.31342-3.20983,6.24434-2.8887,7.35317.49589l2.23373,6.49135a23.86933,23.86933,0,0,1-.351,16.687"/>
        <path class="cls-1" d="M954.48587,286.02109l-5.61827,17.19627c-1.03549,3.283-5.9679,3.3114-7.368.02988l-2.64178-6.33a23.80287,23.80287,0,0,1-.80227-16.65856l5.57481-17.19628c1.07882-3.283,5.9963-3.31139,7.38293,0l2.68511,6.30018a23.80762,23.80762,0,0,1,.78746,16.65856"/>
        <path class="cls-1" d="M937.63257,255.754l-4.37806,17.5174c-.81721,3.38459-5.74813,3.7341-7.35454.55564l-3.12142-6.14185a23.952,23.952,0,0,1-1.95593-16.5555l4.37806-17.53234c.84572-3.35472,5.7632-3.70572,7.38293-.52577l3.093,6.112a23.83758,23.83758,0,0,1,1.95593,16.57044"/>
        <path class="cls-1" d="M918.72174,226.6982l-3.13786,17.78029c-.59768,3.413-5.48677,4.11348-7.32466,1.065l-3.51739-5.89241a23.78286,23.78286,0,0,1-3.093-16.39569l3.12292-17.79522c.61263-3.413,5.47183-4.09855,7.30972-1.065l3.51739,5.89241a24.05942,24.05942,0,0,1,3.12291,16.41061"/>
        <path class="cls-1" d="M897.81165,199.042,895.914,216.99851c-.3362,3.44134-5.16539,4.47793-7.20811,1.54592l-3.91037-5.61609a23.82736,23.82736,0,0,1-4.26151-16.1328l1.89766-17.955c.36459-3.47122,5.194-4.49287,7.19316-1.57579l3.94026,5.64446a23.66557,23.66557,0,0,1,4.24657,16.1328"/>
        <path class="cls-1" d="M875.01884,172.8749l-.61263,18.05661c-.11805,3.45777-4.8592,4.82894-7.09306,2.05674l-4.275-5.33827a23.63007,23.63007,0,0,1-5.38367-15.79673l.62608-18.0581c.11817-3.47122,4.84575-4.82745,7.09306-2.04181l4.30335,5.32333a23.66614,23.66614,0,0,1,5.34183,15.79823"/>
        <path class="cls-1" d="M850.48974,148.38369l.61263,18.073c.1315,3.47122-4.49461,5.14858-6.91673,2.55263l-4.66944-5.03207a24.04533,24.04533,0,0,1-6.47893-15.389l-.62757-18.073c-.08816-3.45628,4.523-5.14858,6.975-2.55263l4.63967,5.03207a23.98765,23.98765,0,0,1,6.46536,15.389"/>
        <path class="cls-1" d="M824.29609,125.68784l1.88272,17.955c.34964,3.44284-4.11508,5.48464-6.727,3.03507l-5.01909-4.69749a23.98133,23.98133,0,0,1-7.51591-14.90653l-1.88123-17.95653c-.36459-3.44284,4.14359-5.43984,6.727-3.03359l5.01908,4.71094a23.7604,23.7604,0,0,1,7.51442,14.89309"/>
        <path class="cls-1" d="M796.58581,104.84409l3.12291,17.79523c.59919,3.4279-3.749,5.73259-6.5372,3.48615l-5.31046-4.31811a23.94321,23.94321,0,0,1-8.523-14.35238l-3.1213-17.78029c-.61424-3.4279,3.73555-5.74753,6.49226-3.50109l5.34195,4.33155a23.99869,23.99869,0,0,1,8.53486,14.33894"/>
        <path class="cls-1" d="M767.46062,85.99884l4.37806,17.53234c.84561,3.35472-3.3128,5.99547-6.26078,3.9238l-5.58837-3.95367a23.81615,23.81615,0,0,1-9.51382-13.69667l-4.3915-17.53235c-.81734-3.38309,3.34119-5.98053,6.27422-3.93872l5.58838,3.93872a23.97888,23.97888,0,0,1,9.51381,13.72655"/>
        <path class="cls-1" d="M737.10993,69.20884l5.58838,17.18283c1.06537,3.29646-2.91821,6.21354-5.96791,4.36143l-5.8663-3.55935a23.77827,23.77827,0,0,1-10.43264-13.01109l-5.58987-17.18134c-1.07883-3.29795,2.90476-6.2001,5.95458-4.348l5.86618,3.55934a23.7333,23.7333,0,0,1,10.44758,12.99616"/>
        <path class="cls-1" d="M705.6641,54.62345l6.78524,16.73026c1.31342,3.20833-2.4804,6.38829-5.66159,4.76919l-6.071-3.12171a23.8127,23.8127,0,0,1-11.33813-12.26577L682.6083,43.99023c-1.29847-3.20983,2.452-6.38979,5.61827-4.77069l6.12779,3.13665A23.70425,23.70425,0,0,1,705.6641,54.62345"/>
        <path class="cls-1" d="M673.26944,42.22475l7.92384,16.23436c1.53157,3.10678-1.99926,6.51974-5.28206,5.14858l-6.319-2.72739A23.733,23.733,0,0,1,657.4367,49.445l-7.92235-16.23437c-1.50318-3.09333,2.01271-6.53467,5.29712-5.13513l6.3025,2.71394a23.67741,23.67741,0,0,1,12.15547,11.43531"/>
        <path class="cls-1" d="M640.10227,32.11579l9.04749,15.63692c1.72134,3.0052-1.548,6.681-4.9323,5.49958l-6.479-2.24644a23.81431,23.81431,0,0,1-12.92947-10.54659l-9.03106-15.63542c-1.75122-3.02014,1.56-6.681,4.91748-5.51451l6.464,2.26137a23.77838,23.77838,0,0,1,12.94292,10.54509"/>
        <path class="cls-1" d="M606.29258,24.3414,616.4189,39.30767c1.941,2.91708-1.10871,6.79755-4.53794,5.84909l-6.61042-1.78042a24.02294,24.02294,0,0,1-13.64371-9.62651L581.53039,18.75519c-1.92605-2.85883,1.0655-6.75275,4.523-5.8491l6.62537,1.82374a23.801,23.801,0,0,1,13.61382,9.61157"/>
        <path class="cls-1" d="M572.03015,18.95981l11.13354,14.22095c2.13064,2.74232-.61263,6.84087-4.1152,6.12691l-6.712-1.31291a23.78207,23.78207,0,0,1-14.28473-8.66461l-11.105-14.23588c-2.1442-2.71394.59918-6.79755,4.10014-6.12691l6.712,1.34279a23.65531,23.65531,0,0,1,14.27128,8.64966"/>
        <path class="cls-1" d="M537.50623,15.96955,549.5886,29.38841c2.31891,2.5825-.13161,6.8558-3.69233,6.38979l-6.77031-.817a23.97033,23.97033,0,0,1-14.869-7.65789L512.1598,13.86949c-2.29064-2.5825.13149-6.82743,3.69221-6.38979l6.7987.84689a23.81608,23.81608,0,0,1,14.85552,7.643"/>
        <path class="cls-1" d="M502.82093,15.40047l13.01614,12.57346c2.46546,2.39132.3347,6.811-3.23947,6.6228l-6.82858-.39432a23.74837,23.74837,0,0,1-15.33654-6.56455L477.41623,15.07934c-2.49535-2.39132-.34965-6.84087,3.20958-6.65118l6.84352.39432a23.84735,23.84735,0,0,1,15.3516,6.578"/>
        <path class="cls-1" d="M468.19391,17.25258l13.83347,11.63994c2.67017,2.18818.81734,6.76768-2.74338,6.82593l-6.85846.08813A23.54613,23.54613,0,0,1,456.681,30.32193L442.83254,18.71187c-2.67017-2.2315-.83079-6.79755,2.72993-6.84087l6.85709-.10306a23.96235,23.96235,0,0,1,15.77435,5.48464"/>
        <path class="cls-1" d="M433.78665,21.54082l14.62082,10.58991c2.78683,2.02836,1.28353,6.72436-2.26225,7.03056l-6.84352.56908A23.8128,23.8128,0,0,1,423.19264,35.354L408.585,24.73572c-2.80165-2.04181-1.31192-6.7393,2.26225-7.0455l6.82858-.56908a23.81712,23.81712,0,0,1,16.11078,4.41968"/>
        <path class="cls-1" d="M399.72881,28.16362l15.33528,9.55332c2.91959,1.85361,1.766,6.6228-1.76479,7.19188l-6.78524,1.05a23.72305,23.72305,0,0,1-16.37216-3.26808l-15.32171-9.55332c-2.9481-1.85211-1.75123-6.6228,1.75122-7.19038l6.78536-1.03659a23.76682,23.76682,0,0,1,16.372,3.25315"/>
        <path class="cls-1" d="M366.25383,37.19267l15.96423,8.445c3.03476,1.67736,2.21742,6.5063-1.27008,7.29344l-6.68215,1.531a23.70881,23.70881,0,0,1-16.54847-2.12843l-15.99262-8.46147c-3.0497-1.61911-2.20248-6.48986,1.27008-7.24863l6.68364-1.57579a23.91322,23.91322,0,0,1,16.57537,2.14486"/>
        <path class="cls-1" d="M333.45125,48.51147l16.51859,7.30838c3.1513,1.44286,2.68511,6.33005-.72918,7.38008l-6.59548,1.98355a23.80713,23.80713,0,0,1-16.665-.94846l-16.50365-7.33676c-3.16625-1.42941-2.67017-6.31511.74412-7.36514l6.56709-1.985a23.88279,23.88279,0,0,1,16.66353.96339"/>
        <path class="cls-1" d="M301.55416,62.06177,318.539,68.24694c3.25441,1.1964,3.108,6.112-.2331,7.38007l-6.42066,2.43612a23.68694,23.68694,0,0,1-16.69341.21957l-16.97133-6.15678c-3.23936-1.19491-3.093-6.12542.23459-7.395l6.41916-2.43613a23.89128,23.89128,0,0,1,16.68-.233"/>
        <path class="cls-1" d="M270.67774,77.84506,288.042,82.83233c3.32613.94846,3.53083,5.879.29137,7.38156l-6.23089,2.85883a23.96931,23.96931,0,0,1-16.6202,1.39954L248.07459,89.485c-3.31269-.9634-3.50245-5.879-.263-7.38157l6.23089-2.87376a23.74831,23.74831,0,0,1,16.63525-1.38461"/>
        <path class="cls-1" d="M240.95314,95.72692l17.68557,3.764c3.3859.7289,3.92542,5.60115.78756,7.33676l-5.9964,3.3114a23.97944,23.97944,0,0,1-16.50365,2.53769l-17.67212-3.764c-3.3843-.714-3.93876-5.61459-.81585-7.33676l6.04113-3.3114a23.90745,23.90745,0,0,1,16.47376-2.53769"/>
        <path class="cls-1" d="M212.572,115.65207l17.88879,2.50932c3.42934.49588,4.31978,5.32333,1.31341,7.26356l-5.77814,3.71917a23.681,23.681,0,0,1-16.2556,3.67584l-17.91867-2.49437c-3.42923-.49589-4.275-5.33827-1.29848-7.26357l5.74975-3.749a23.98347,23.98347,0,0,1,16.29894-3.66091"/>
        <path class="cls-1" d="M185.64912,137.50252l18.02177,1.25466c3.45773.21807,4.66943,5.01714,1.79456,7.162l-5.50172,4.08362a23.75022,23.75022,0,0,1-15.96273,4.82893l-18.02177-1.25466c-3.47257-.24794-4.68438-5.01862-1.8094-7.162l5.48667-4.12842a23.75985,23.75985,0,0,1,15.99262-4.78413"/>
        <path class="cls-1" d="M160.30269,161.1319h18.08c3.44418,0,5.00564,4.6975,2.29064,7.0455l-5.18045,4.47793a23.835,23.835,0,0,1-15.61309,5.90735H141.82966c-3.4875,0-5.03391-4.696-2.32052-7.01563l5.18046-4.47793a23.86869,23.86869,0,0,1,15.61309-5.93722"/>
        <path class="cls-1" d="M136.67909,186.5417l18.03522-1.25466c3.44418-.24794,5.31195,4.31812,2.80166,6.84087l-4.90253,4.82894a23.8112,23.8112,0,0,1-15.13195,6.97231l-18.03522,1.2681c-3.45912.2345-5.32689-4.33155-2.78821-6.84087l4.8592-4.82744a23.78632,23.78632,0,0,1,15.16183-6.98725"/>
        <path class="cls-1" d="M114.89339,213.48248l17.90372-2.49438c3.41429-.481,5.58838,3.95367,3.23947,6.6228l-4.50806,5.16351a23.75842,23.75842,0,0,1-14.63576,8.0074l-17.89039,2.5377c-3.42923.48244-5.60332-3.93724-3.28269-6.65118l4.52289-5.14857a23.86787,23.86787,0,0,1,14.65082-8.03728"/>
        <path class="cls-1" d="M95.01878,241.91092l17.67063-3.74754c3.40084-.71545,5.88125,3.52947,3.70716,6.37336l-4.13,5.46971A23.87417,23.87417,0,0,1,98.215,259.02057l-17.67223,3.749c-3.3844.7289-5.85136-3.52947-3.70566-6.35992l4.15841-5.45477a23.74537,23.74537,0,0,1,14.02324-9.044"/>
        <path class="cls-1" d="M77.17333,271.65228l17.37776-5.0022c3.32763-.94846,6.09951,3.15008,4.15991,6.112l-3.76543,5.746a23.80565,23.80565,0,0,1-13.38073,10.00739l-17.36432,4.97382c-3.31268.9619-6.08445-3.12171-4.15841-6.112l3.76394-5.74752a23.886,23.886,0,0,1,13.36728-9.97751"/>
        <path class="cls-1" d="M61.48713,302.54672l16.98468-6.15529c3.23946-1.19641,6.28916,2.68407,4.55288,5.79084l-3.34257,5.99547a23.56855,23.56855,0,0,1-12.665,10.86623l-16.97134,6.1986c-3.25291,1.18147-6.31756-2.68407-4.58127-5.80428l3.356-5.99547a23.91163,23.91163,0,0,1,12.6666-10.8961"/>
        <path class="cls-1" d="M47.95986,334.46132l16.50365-7.32182c3.16625-1.41448,6.464,2.23149,4.9608,5.48464l-2.91821,6.19861A23.82408,23.82408,0,0,1,54.642,350.56425l-16.5171,7.35169c-3.1528,1.3861-6.464-2.25988-4.93241-5.46971l2.90327-6.21354a24.01369,24.01369,0,0,1,11.86409-11.77137"/>
        <path class="cls-1" d="M36.695,367.26613l15.97768-8.47492c3.0497-1.6191,6.62536,1.79386,5.32689,5.10526l-2.4819,6.40324a23.77554,23.77554,0,0,1-11.01687,12.53014L28.553,391.3197c-3.06464,1.63255-6.62537-1.76548-5.31195-5.09182l2.43707-6.41668A24.21537,24.21537,0,0,1,36.695,367.26613"/>
        <path class="cls-1" d="M27.764,400.77145l15.32172-9.58319c2.93315-1.82374,6.712,1.34129,5.67654,4.72587l-2.01421,6.56306A24.08756,24.08756,0,0,1,36.63667,415.7661l-15.3516,9.55332c-2.91821,1.8536-6.712-1.298-5.64665-4.72588l1.99926-6.53467A23.88,23.88,0,0,1,27.764,400.77145"/>
        <path class="cls-1" d="M21.16852,434.801l14.63587-10.63322c2.80166-2.02836,6.80019.86034,5.98285,4.33156l-1.56145,6.68105a23.94975,23.94975,0,0,1-9.16405,13.973l-14.606,10.60484c-2.80166,2.05674-6.80019-.8454-5.98286-4.30318l1.54652-6.681a24.02162,24.02162,0,0,1,9.1491-13.973"/>
        <path class="cls-1" d="M16.96678,469.21,30.8137,457.6c2.65683-2.2315,6.85847.39282,6.27423,3.89392l-1.09377,6.76768a23.71492,23.71492,0,0,1-8.14189,14.572L14.00374,494.43012c-2.64028,2.2315-6.84352-.351-6.25928-3.86554L8.80984,483.782a23.98482,23.98482,0,0,1,8.15694-14.572"/>
        <path class="cls-1" d="M15.21555,503.852l12.98626-12.57346c2.49534-2.37638,6.84352-.08663,6.52226,3.47272l-.59768,6.82593a23.89429,23.89429,0,0,1-7.1349,15.09622L13.97535,529.21849c-2.4804,2.39131-6.84352.10156-6.50881-3.44284l.62757-6.84087A23.62216,23.62216,0,0,1,15.21555,503.852"/>
        <path class="cls-1" d="M15.84313,538.51042l12.0957-13.42035c2.32052-2.55264,6.81513-.58252,6.757,2.97533l-.16148,6.87074A23.6408,23.6408,0,0,1,28.47984,550.47L16.39748,563.90528c-2.30558,2.581-6.81513.56758-6.74191-2.99027l.14653-6.8558a23.64447,23.64447,0,0,1,6.041-15.54879"/>
        <path class="cls-1" d="M18.90627,573.0359,30.02625,558.8c2.15925-2.71394,6.75536-1.05152,6.94513,2.49288l.36459,6.88568a23.94514,23.94514,0,0,1-4.97575,15.91324L21.2268,598.3277c-2.11571,2.72888-6.77031,1.05152-6.94513-2.50782l-.35114-6.85581a23.87143,23.87143,0,0,1,4.97574-15.92817"/>
        <path class="cls-1" d="M24.3796,607.28356,34.476,592.31879c1.926-2.90215,6.68364-1.56086,7.09156,1.98355l.83228,6.82593a23.911,23.911,0,0,1-3.82221,16.22093L28.45,632.32891c-1.92615,2.8887-6.68225,1.531-7.09166-2.01343l-.81734-6.79606a23.77992,23.77992,0,0,1,3.83865-16.23586"/>
        <path class="cls-1" d="M32.20044,641.05177l9.03245-15.65185c1.73628-2.99027,6.5656-1.96862,7.238,1.53247l1.29848,6.72437a23.77145,23.77145,0,0,1-2.715,16.46737L38.03676,665.776c-1.75123,2.99027-6.5656,1.98356-7.238-1.51753l-1.28353-6.73931a23.998,23.998,0,0,1,2.68521-16.46737"/>
        <path class="cls-1" d="M42.38493,674.19115l7.92384-16.26275c1.51813-3.07839,6.39078-2.40775,7.29627,1.02016l1.75123,6.63773A23.75226,23.75226,0,0,1,57.83814,682.215L49.9143,698.44935c-1.50159,3.10677-6.41916,2.42119-7.32466-1.00671l-1.75122-6.6228a23.73475,23.73475,0,0,1,1.54651-16.62869"/>
        <path class="cls-1" d="M54.84672,706.54488l6.75685-16.7452c1.31342-3.22476,6.23089-2.90363,7.38294.49589l2.21742,6.47642a23.8166,23.8166,0,0,1-.36459,16.70039L64.069,730.20264c-1.28353,3.22476-6.21595,2.8887-7.35454-.49589l-2.23236-6.47642a24.02627,24.02627,0,0,1,.36459-16.68545"/>
        <path class="cls-1" d="M69.526,737.93372l5.58977-17.1679c1.06538-3.32633,5.98285-3.32633,7.368-.02838l2.67017,6.33005a23.8632,23.8632,0,0,1,.8024,16.65707l-5.57344,17.18283c-1.08032,3.29646-6.01124,3.29646-7.38293.02987l-2.65672-6.33154a23.83918,23.83918,0,0,1-.81724-16.672"/>
        <path class="cls-1" d="M86.36587,768.24414l4.37806-17.5174c.83068-3.38459,5.778-3.7341,7.36789-.5407l3.12291,6.097a24.13289,24.13289,0,0,1,1.9411,16.58537l-4.393,17.54728c-.8309,3.33978-5.73343,3.69079-7.35316.51083l-3.09453-6.112a24.00794,24.00794,0,0,1-1.96927-16.57044"/>
        <path class="cls-1" d="M105.27659,797.28647l3.13786-17.78178c.61263-3.413,5.47183-4.11348,7.32466-1.065l3.53084,5.90734a23.90971,23.90971,0,0,1,3.09453,16.38075L119.24156,818.523c-.61263,3.42791-5.48666,4.11349-7.32455,1.065l-3.5175-5.89241a24.13721,24.13721,0,0,1-3.12292-16.40913"/>
        <path class="cls-1" d="M126.17324,824.95615l1.91121-17.95654c.34954-3.44134,5.15047-4.49137,7.22295-1.55936l3.91037,5.62953a23.744,23.744,0,0,1,4.24657,16.1328l-1.89766,17.97c-.34965,3.4279-5.18045,4.47793-7.20811,1.54592l-3.92531-5.62953a24.051,24.051,0,0,1-4.26-16.1328"/>
        <path class="cls-1" d="M148.9795,851.12322l.64251-18.05661c.11655-3.45777,4.84426-4.84387,7.07673-2.05674l4.31968,5.33827a23.79137,23.79137,0,0,1,5.34034,15.79673l-.62757,18.0581c-.10161,3.45629-4.84426,4.82745-7.07662,2.04181l-4.30485-5.33827a23.83479,23.83479,0,0,1-5.37022-15.78329"/>
        <path class="cls-1" d="M173.52364,875.61443l-.62757-18.073c-.08826-3.47122,4.50945-5.14857,6.93157-2.53769l4.66944,5.01713a24.007,24.007,0,0,1,6.46409,15.389l.61263,18.04317c.11645,3.48615-4.50816,5.17845-6.94523,2.53919l-4.641-5.01863a23.83757,23.83757,0,0,1-6.46389-15.3591"/>
        <path class="cls-1" d="M199.73064,898.31029l-1.89606-17.97c-.35125-3.42791,4.11348-5.46971,6.72537-3.01865l5.02058,4.696a23.8302,23.8302,0,0,1,7.51453,14.908l1.89766,17.97c.34954,3.4279-4.14507,5.42639-6.72708,3.01865l-5.034-4.71094a23.66649,23.66649,0,0,1-7.501-14.89308"/>
        <path class="cls-1" d="M227.44092,919.14058l-3.13786-17.78178c-.58274-3.413,3.73555-5.746,6.52387-3.48615l5.32529,4.31811a23.877,23.877,0,0,1,8.49313,14.35238l3.15131,17.78178c.59769,3.413-3.73555,5.71766-6.49387,3.4996l-5.34034-4.33155a23.83585,23.83585,0,0,1-8.52153-14.35239"/>
        <path class="cls-1" d="M256.55129,938.00077l-4.37657-17.53383c-.84711-3.35472,3.34107-5.98054,6.25928-3.9238l5.60332,3.95367a23.73519,23.73519,0,0,1,9.50025,13.71012l4.3915,17.5189c.83239,3.36965-3.34107,5.98053-6.25928,3.90885l-5.61826-3.90885a23.86334,23.86334,0,0,1-9.50024-13.72506"/>
        <path class="cls-1" d="M286.90335,954.77435,281.315,937.59151c-1.06537-3.28152,2.88833-6.1986,5.953-4.34649l5.88124,3.54441a23.98106,23.98106,0,0,1,10.43264,12.99616l5.58838,17.2127c1.08032,3.26659-2.91821,6.18367-5.98285,4.35994l-5.85136-3.57279a23.84832,23.84832,0,0,1-10.43264-13.01109"/>
        <path class="cls-1" d="M318.34918,969.37467l-6.7703-16.73026c-1.3-3.20833,2.46546-6.38829,5.64665-4.76919l6.08446,3.12171a23.68817,23.68817,0,0,1,11.33813,12.26726l6.75686,16.7452c1.32686,3.20833-2.43708,6.38829-5.61827,4.76919l-6.11434-3.13664a23.73082,23.73082,0,0,1-11.32319-12.26727"/>
        <path class="cls-1" d="M350.74384,981.77338l-7.9089-16.23437c-1.53307-3.10677,1.98433-6.54961,5.28207-5.14858l6.30261,2.71245A23.9387,23.9387,0,0,1,366.59,974.53818l7.9089,16.23587c1.50318,3.10677-2.01421,6.53467-5.297,5.13364l-6.3041-2.699a23.79306,23.79306,0,0,1-12.154-11.4353"/>
        <path class="cls-1" d="M383.926,991.86739l-9.03255-15.63691c-1.75122-3.01865,1.51664-6.66612,4.91748-5.48465l6.464,2.2315a23.79152,23.79152,0,0,1,12.928,10.56153l9.03266,15.63691c1.75111,3.01865-1.54663,6.67956-4.93253,5.49809l-6.449-2.24644a23.71909,23.71909,0,0,1-12.928-10.56"/>
        <path class="cls-1" d="M417.70576,999.61341,407.593,984.677c-1.93961-2.90363,1.09515-6.78411,4.53932-5.85059l6.59548,1.79536a23.89582,23.89582,0,0,1,13.65716,9.65638l10.098,14.96478c1.94088,2.85882-1.08043,6.75423-4.52311,5.83415l-6.62537-1.8088a23.72071,23.72071,0,0,1-13.62876-9.65488"/>
        <path class="cls-1" d="M451.96819,1005.02486l-11.105-14.2075c-2.15915-2.74232.59768-6.84087,4.0853-6.14035l6.72686,1.32635a23.87408,23.87408,0,0,1,14.28623,8.64967L477.08,1008.88891c2.11592,2.72888-.61263,6.81249-4.115,6.14185l-6.71214-1.34279a23.64311,23.64311,0,0,1-14.28473-8.66311"/>
        <path class="cls-1" d="M486.50705,1008.02857,474.4248,994.60971c-2.32052-2.5825.13149-6.8558,3.67727-6.40323l6.78525.83046a23.76637,23.76637,0,0,1,14.85414,7.6579l12.09708,13.42035c2.29064,2.581-.13149,6.8558-3.69221,6.40323l-6.7987-.86034a23.91,23.91,0,0,1-14.84058-7.62951"/>
        <path class="cls-1" d="M521.19235,1008.59765,508.2046,996.02419c-2.49534-2.39132-.37942-6.811,3.226-6.6213l6.82858.39282a23.844,23.844,0,0,1,15.35011,6.54961l12.98774,12.57346c2.49535,2.39281.36459,6.82594-3.21107,6.63624l-6.84352-.37938a23.90914,23.90914,0,0,1-15.35011-6.578"/>
        <path class="cls-1" d="M555.81949,1006.74554,541.9859,995.1056c-2.65673-2.23149-.83228-6.76768,2.72844-6.82593l6.85846-.10306a23.63731,23.63731,0,0,1,15.75953,5.51452l13.86186,11.59512c2.6419,2.20312.83228,6.79755-2.75833,6.84087l-6.85846.08813a23.79484,23.79484,0,0,1-15.75791-5.46971"/>
        <path class="cls-1" d="M590.25513,1002.48568l-14.64932-10.61829c-2.77327-2.02687-1.27008-6.7393,2.2757-7.03056l6.85846-.56908a23.63262,23.63262,0,0,1,16.08078,4.3913l14.64932,10.60335c2.78822,2.04181,1.285,6.72437-2.27569,7.00218l-6.84352.6124a23.9477,23.9477,0,0,1-16.09573-4.3913"/>
        <path class="cls-1" d="M624.26965,995.8345l-15.3069-9.61157c-2.94809-1.79536-1.77961-6.59293,1.75123-7.13363l6.78524-1.05a23.83939,23.83939,0,0,1,16.3871,3.26808l15.32183,9.55332c2.94648,1.83867,1.74962,6.6228-1.76628,7.17694l-6.78525,1.05a24.00162,24.00162,0,0,1-16.387-3.25315"/>
        <path class="cls-1" d="M657.78784,986.80545l-15.96423-8.46c-3.06465-1.66242-2.20248-6.48986,1.25514-7.2785l6.6687-1.531A24.04367,24.04367,0,0,1,666.3527,971.636l15.93435,8.48985c3.06464,1.61911,2.23236,6.47642-1.25515,7.26357l-6.69708,1.51754a23.63642,23.63642,0,0,1-16.547-2.10155"/>
        <path class="cls-1" d="M690.56054,975.50158l-16.5171-7.36663c-3.1528-1.39954-2.68511-6.28673.72918-7.33676l6.58054-1.98355a23.97843,23.97843,0,0,1,16.665.94846l16.50365,7.33676c3.16637,1.42941,2.67016,6.31511-.73068,7.36663L707.22556,976.45a23.96381,23.96381,0,0,1-16.665-.94846"/>
        <path class="cls-1" d="M722.47406,961.93635l-16.98479-6.21354c-3.26935-1.168-3.09452-6.0836.20322-7.36663l6.4356-2.43613a23.84491,23.84491,0,0,1,16.69341-.20314l16.96984,6.15529c3.26935,1.18147,3.108,6.12542-.20321,7.395l-6.4356,2.43613a23.889,23.889,0,0,1-16.67847.233"/>
        <path class="cls-1" d="M753.35059,946.15306l-17.37926-4.98727c-3.31268-.94846-3.51589-5.879-.30631-7.3965l6.24583-2.85883a23.96371,23.96371,0,0,1,16.64859-1.3846l17.37925,4.98876c3.31269.9619,3.5174,5.87747.27805,7.38007l-6.24583,2.87376a23.70157,23.70157,0,0,1-16.62032,1.38461"/>
        <path class="cls-1" d="M783.04532,928.25627l-17.67075-3.749c-3.40084-.72889-3.92531-5.60115-.78895-7.35169l5.99792-3.29647a23.84661,23.84661,0,0,1,16.51846-2.52275l17.67063,3.749c3.3859.7289,3.91037,5.60115.8024,7.3517l-6.04113,3.29646a23.92983,23.92983,0,0,1-16.48858,2.52276"/>
        <path class="cls-1" d="M811.45627,908.361l-17.92016-2.5377c-3.45762-.46751-4.30335-5.30989-1.29848-7.25012l5.76482-3.71917a23.817,23.817,0,0,1,16.26893-3.70572l17.90522,2.52425c3.41429.49589,4.2899,5.33827,1.31354,7.24864l-5.77826,3.7341a23.8014,23.8014,0,0,1-16.25561,3.70572"/>
        <path class="cls-1" d="M838.36267,886.51053l-18.02028-1.26959c-3.44417-.248-4.66943-4.98876-1.79443-7.162l5.48664-4.11349a23.72822,23.72822,0,0,1,15.96274-4.78413l18.03522,1.23973c3.47418.24794,4.6845,5.01863,1.8095,7.162l-5.51516,4.12842a23.87162,23.87162,0,0,1-15.96423,4.79906"/>
      </g>
      <polygon class="cls-2" points="465.533 121.021 494.307 100.318 483.177 66.361 511.76 87.329 540.615 66.251 529.505 99.914 558.467 120.844 523.02 120.68 512.064 154.692 501.266 120.93 465.533 121.021"/>
      <polygon class="cls-2" points="319.449 168.565 338.11 138.426 314.833 111.313 349.263 119.747 367.856 89.232 370.474 124.583 405.241 132.836 372.429 146.25 375.324 181.866 352.427 154.806 319.449 168.565"/>
      <polygon class="cls-2" points="202.679 268.393 208.386 233.408 176.505 217.266 211.542 211.882 217.042 176.574 232.989 208.233 268.268 202.553 243.087 227.503 259.391 259.3 227.881 243.062 202.679 268.393"/>
      <polygon class="cls-2" points="133 405.309 124.884 370.802 89.253 368.09 119.563 349.708 111.132 314.983 137.981 338.129 168.401 319.381 154.684 352.067 181.915 375.205 146.59 372.261 133 405.309"/>
      <polygon class="cls-2" points="121.021 558.467 100.318 529.693 66.361 540.823 87.329 512.24 66.251 483.385 99.914 494.495 120.844 465.533 120.68 500.98 154.692 511.936 120.93 522.734 121.021 558.467"/>
      <polygon class="cls-2" points="168.565 704.551 138.426 685.89 111.313 709.167 119.747 674.737 89.232 656.144 124.583 653.526 132.836 618.759 146.25 651.571 181.866 648.676 154.806 671.573 168.565 704.551"/>
      <polygon class="cls-2" points="268.393 821.321 233.408 815.614 217.266 847.495 211.882 812.458 176.574 806.958 208.233 791.011 202.553 755.732 227.503 780.913 259.3 764.609 243.062 796.119 268.393 821.321"/>
      <polygon class="cls-2" points="405.309 891 370.802 899.116 368.09 934.747 349.708 904.437 314.983 912.868 338.129 886.019 319.381 855.599 352.067 869.316 375.205 842.085 372.261 877.41 405.309 891"/>
      <polygon class="cls-2" points="558.467 902.979 529.693 923.682 540.823 957.639 512.24 936.671 483.385 957.749 494.495 924.086 465.533 903.156 500.98 903.32 511.936 869.308 522.734 903.07 558.467 902.979"/>
      <polygon class="cls-2" points="704.551 855.435 685.89 885.574 709.167 912.687 674.737 904.253 656.144 934.768 653.526 899.417 618.759 891.164 651.571 877.75 648.676 842.134 671.573 869.194 704.551 855.435"/>
      <polygon class="cls-2" points="821.321 755.607 815.614 790.592 847.495 806.734 812.458 812.118 806.958 847.426 791.011 815.767 755.732 821.447 780.913 796.497 764.609 764.7 796.119 780.938 821.321 755.607"/>
      <polygon class="cls-2" points="891 618.691 899.116 653.198 934.747 655.91 904.437 674.292 912.868 709.017 886.019 685.871 855.599 704.619 869.316 671.933 842.085 648.795 877.41 651.739 891 618.691"/>
      <polygon class="cls-2" points="902.979 465.533 923.682 494.307 957.639 483.177 936.671 511.76 957.749 540.615 924.086 529.505 903.156 558.467 903.32 523.02 869.308 512.064 903.07 501.266 902.979 465.533"/>
      <polygon class="cls-2" points="855.435 319.449 885.574 338.11 912.687 314.833 904.253 349.263 934.768 367.856 899.417 370.474 891.164 405.241 877.75 372.429 842.134 375.324 869.194 352.427 855.435 319.449"/>
      <polygon class="cls-2" points="755.607 202.679 790.592 208.386 806.734 176.505 812.118 211.542 847.426 217.042 815.767 232.989 821.447 268.268 796.497 243.087 764.7 259.391 780.938 227.881 755.607 202.679"/>
      <polygon class="cls-2" points="618.691 133 653.198 124.884 655.91 89.253 674.292 119.563 709.017 111.132 685.871 137.981 704.619 168.401 671.933 154.684 648.795 181.915 651.739 146.59 618.691 133"/>
    </g>
    <path class="cls-1" d="M512.01608,849.13036c-185.89872,0-337.14141-151.22661-337.14141-337.14141,0-185.91658,151.24269-337.15915,337.14141-337.15915S849.17521,326.07237,849.17521,511.989c0,185.9148-151.26029,337.14141-337.15913,337.14141m-.00006-664.4447c-180.47019,0-327.30145,146.83127-327.30145,327.30322,0,180.47019,146.83126,327.28385,327.30145,327.28385,180.472,0,327.2856-146.81366,327.2856-327.28385,0-180.47195-146.81365-327.30322-327.2856-327.30322"/>
    <g>
      <g>
        <path class="cls-1" d="M574.49327,349.16541a106.49943,106.49943,0,0,1,36.12127,38.75229,104.2627,104.2627,0,0,1,12.91953,46.38668,50.32627,50.32627,0,0,1,.16173,5.42311,106.80383,106.80383,0,0,1-204.13464,43.28023,89.19838,89.19838,0,0,1-4.8472-12.74111,106.85526,106.85526,0,0,1,45.68029-121.80346,85.46476,85.46476,0,0,0-21.30016,98.89516,79.13861,79.13861,0,0,0,6.23682,11.373,85.67455,85.67455,0,0,0,49.93078,36.36946,84.00415,84.00415,0,0,0,21.26493,2.79216,85.37892,85.37892,0,0,0,85.95281-84.901l.00062-.09954a81.221,81.221,0,0,0-1.47716-16.36592,85.06433,85.06433,0,0,0-26.50962-47.3611"/>
        <polygon class="cls-1" points="526.179 274.77 549.433 258.162 537.188 294.94 568.477 317.992 529.657 317.753 517.409 354.531 505.617 317.605 466.893 317.367 480.453 307.597 498.367 294.701 486.673 257.776 517.863 280.729 526.179 274.77"/>
      </g>
      <path class="cls-1" d="M613.34932,739.36559c10.85335-14.3562,35.54922-26.29518,60.00619-40.72729,16.83991-9.93719,33.0255-18.857,43.98418-29.04192,4.51845-4.19835,37.79168-73.17732,48.50087-101.845a7.84794,7.84794,0,0,0,.2489-2.2454c.16652-10.20727-5.18513-48.50322-4.063-78.70962.32716-8.79448-5.50464-12.02313-11.24053-11.29055-5.58938.71317-9.39,6.7568-11.54063,18.25447-.77789,4.12245-2.84735,13.686-4.01653,22.96239-2.09359,16.60748-4.24426,35.46743-4.24426,35.46743s7.94422,1.64639,11.0999,5.42168c3.151,3.77116,3.02682,7.79829.10886,13.26468-1.71053,3.201-10.78745,14.46506-20.13857,27.605-4.82149,6.77563-9.68241,14.95933-13.46946,19.46249-1.424,1.69405-7.43759,6.38079-8.61149,7.25106-12.4409,9.22344-10.50618,7.0004-10.50618,7.0004,1.82585-2.61787,7.46407-7.11985,14.40092-15.59011,3.76175-4.59318,7.10043-11.09225,12.81808-20.82,8.31374-14.145,9.3929-13.0305,17.6731-26.43817,3.73469-6.04893-2.57373-10.75392-10.202-10.42793-5.44227.233-11.86426,3.21276-15.53833,5.0645-3.37046,1.69994-10.13843,4.51434-25.45434,20.0921-3.88,3.9471-9.0781,11.90544-14.05022,17.65957-11.68185,13.52124-19.87909,20.6046-25.79974,22.63111-11.856,4.05832-33.771,14.16556-59.73787,23.23836-21.69789,7.58117-55.98789,32.94077-60.27275,66.63942-1.74936,13.78367-2.43663,45.74531-2.6667,76.63133a277.3899,277.3899,0,0,0,90.89514-17.82551C609.993,757.2876,609.93532,743.88228,613.34932,739.36559Z"/>
      <path class="cls-1" d="M409.91527,739.68216c3.3175,4.38959,3.36457,17.16118,1.953,32.34117a277.19964,277.19964,0,0,0,90.75569,18.78286c-.23242-30.76656-.92146-62.51932-2.66376-76.24532-4.28485-33.69865-38.57486-59.05826-60.27274-66.63942-25.96685-9.07281-47.88186-19.18005-59.73788-23.23836-5.92065-2.02651-14.11789-9.10987-25.79974-22.63111-4.97153-5.75413-10.16961-13.71247-14.05022-17.65958-15.31591-15.57775-22.08388-18.39215-25.45434-20.09209-3.67407-1.85116-10.09606-4.83149-15.53833-5.06392-7.62824-.32657-13.93666,4.37842-10.202,10.42734,8.2802,13.40768,9.35936,12.29322,17.6731,26.43818,5.71765,9.72771,9.05633,16.22677,12.81808,20.82,6.93685,8.47085,12.57507,12.97224,14.40092,15.59011,0,0,1.93472,2.223-10.50618-7.0004-1.1739-.87027-7.18752-5.557-8.61149-7.25106-3.78705-4.50316-8.64738-12.68686-13.46945-19.46249-9.35113-13.13994-18.428-24.40342-20.13858-27.605-2.918-5.46639-3.04212-9.49352.10886-13.26469,3.15568-3.77528,11.0999-5.42167,11.0999-5.42167s-2.15067-18.86-4.24426-35.46684c-1.16918-9.277-3.23864-18.84053-4.01653-22.963-2.15067-11.49767-5.95125-17.54131-11.54063-18.25447-5.73589-.73258-11.56769,2.49607-11.24053,11.29055,1.12211,30.20639-4.22954,68.50235-4.063,78.70962a7.84484,7.84484,0,0,0,.2489,2.2454c10.70919,28.66768,43.98242,97.64664,48.50087,101.84559,10.95868,10.18432,27.14427,19.10414,43.98418,29.04191C374.366,713.387,399.06192,725.326,409.91527,739.68216Z"/>
    </g>
  </g>
</svg>
